<?xml version="1.0" standalone="no"?>
<!DOCTYPE svg PUBLIC "-//W3C//DTD SVG 20010904//EN"
 "http://www.w3.org/TR/2001/REC-SVG-20010904/DTD/svg10.dtd">
<svg version="1.0" xmlns="http://www.w3.org/2000/svg"
 width="2379.000000pt" height="2417.000000pt" viewBox="0 0 2379.000000 2417.000000"
 preserveAspectRatio="xMidYMid meet">

<g transform="translate(0.000000,2417.000000) scale(0.100000,-0.100000)"
fill="#000000" stroke="none">
<path d="M0 12085 l0 -12085 11895 0 11895 0 0 12085 0 12085 -11895 0 -11895
0 0 -12085z m10200 8565 l0 -800 -875 0 -875 0 0 800 0 800 875 0 875 0 0
-800z m2550 777 c831 -97 1556 -356 2225 -794 284 -186 511 -370 768 -623 271
-265 457 -489 662 -795 459 -686 726 -1424 822 -2267 25 -219 25 -800 0 -1018
-95 -839 -363 -1579 -820 -2265 -189 -284 -359 -489 -631 -761 -266 -265 -473
-438 -751 -624 -590 -396 -1268 -667 -1950 -780 -381 -63 -382 -63 -1422 -67
l-953 -4 0 800 0 800 858 4 c895 4 916 5 1180 52 1323 231 2411 1261 2721
2575 68 288 86 453 85 785 0 291 -11 413 -55 640 -109 550 -339 1044 -695
1490 -113 141 -377 406 -519 519 -481 384 -1044 630 -1640 717 -230 33 -406
39 -1177 39 l-758 0 0 801 0 800 953 -4 c811 -3 973 -6 1097 -20z m-1550
-2882 l0 -805 -1369 0 c-1239 0 -1369 2 -1375 16 -8 21 -8 1579 1 1587 3 4
622 7 1375 7 l1368 0 0 -805z m-1000 -2105 l0 -800 -875 0 -875 0 0 800 0 800
875 0 875 0 0 -800z m1000 -2105 l0 -805 -1372 2 -1373 3 -3 790 c-1 435 0
796 3 803 3 9 288 12 1375 12 l1370 0 0 -805z m-1000 -2105 l0 -800 -872 2
-873 3 -3 798 -2 797 875 0 875 0 0 -800z m-6748 -5427 l3 -1528 743 -3 742
-2 0 -325 0 -325 -1130 0 -1130 0 0 1855 0 1855 385 0 385 0 2 -1527z m4428
1202 l0 -325 -755 0 -755 0 0 -410 0 -410 643 -2 642 -3 2 -322 3 -323 -645 0
-645 0 0 -470 0 -470 785 0 785 0 0 -325 0 -325 -1175 0 -1175 0 0 1855 0
1855 1145 0 1145 0 0 -325z m3365 297 c426 -67 736 -212 980 -457 296 -295
443 -696 462 -1255 26 -779 -212 -1350 -697 -1673 -224 -149 -451 -230 -775
-278 -53 -8 -306 -13 -737 -16 l-658 -5 0 1857 0 1857 648 -5 c593 -4 658 -6
777 -25z m3917 -572 c389 -1227 555 -1752 740 -2335 104 -330 202 -639 218
-687 l28 -88 -412 0 -411 0 -119 443 c-65 243 -123 452 -127 465 l-9 22 -579
0 -580 0 -12 -42 c-37 -143 -212 -792 -225 -835 l-15 -53 -394 0 c-217 0 -395
2 -395 6 0 5 723 2279 925 2909 46 143 120 377 165 520 45 143 84 263 87 268
2 4 212 6 465 5 l462 -3 188 -595z m2186 -1252 l-3 -1853 -387 -3 -388 -2 0
1855 0 1855 390 0 390 0 -2 -1852z m2210 888 c441 -827 539 -1019 696 -1361
100 -219 188 -401 194 -403 17 -5 16 23 -13 311 -60 605 -58 564 -62 1520 l-4
897 365 0 366 0 0 -1855 0 -1855 -396 2 -395 3 -510 955 c-421 788 -543 1025
-696 1355 -102 220 -189 404 -194 409 -22 24 -21 -21 4 -262 68 -644 77 -834
77 -1729 l0 -733 -375 0 -375 0 0 1855 0 1855 403 0 402 -1 513 -963z m-6320
-3245 l31 -38 -111 -87 c-60 -48 -115 -89 -122 -92 -7 -3 -23 7 -36 22 l-25
26 110 104 c60 57 112 104 116 104 3 0 20 -17 37 -39z m-9905 -316 c32 -16 74
-43 94 -60 l37 -32 -34 -41 -33 -41 -35 31 c-58 50 -115 70 -199 70 -208 0
-342 -174 -343 -443 0 -206 67 -356 191 -424 49 -27 62 -30 149 -30 108 0 155
17 225 81 l39 37 33 -39 32 -39 -32 -33 c-85 -88 -193 -127 -329 -120 -198 12
-343 135 -410 348 -20 64 -23 95 -22 215 0 126 3 148 28 220 57 166 159 271
311 322 25 8 76 12 140 10 87 -3 108 -7 158 -32z m970 -3 c123 -57 213 -175
254 -332 20 -79 23 -269 4 -355 -23 -106 -82 -214 -155 -282 -92 -87 -149
-108 -292 -108 -107 0 -112 1 -186 38 -174 86 -268 269 -268 522 0 186 45 318
143 422 96 102 179 134 332 130 88 -2 108 -6 168 -35z m2287 6 c54 -27 130
-83 130 -96 0 -4 -14 -25 -31 -45 l-32 -38 -31 30 c-77 74 -218 97 -322 52
-91 -39 -171 -142 -205 -261 -17 -61 -17 -261 0 -330 33 -133 121 -242 222
-275 108 -36 234 -9 326 70 l40 34 34 -35 33 -34 -40 -41 c-127 -132 -340
-158 -513 -64 -155 85 -244 269 -244 505 0 278 118 471 331 541 87 29 229 23
302 -13z m4077 13 c62 -29 97 -86 101 -171 7 -110 -40 -188 -173 -288 -33 -25
-62 -47 -64 -49 -14 -11 155 -220 230 -283 l49 -41 37 58 c43 67 100 193 109
241 6 32 7 32 65 32 l58 0 -30 -87 c-37 -103 -73 -177 -124 -253 -43 -63 -47
-56 79 -121 44 -23 83 -43 84 -45 5 -4 -19 -77 -28 -87 -10 -11 -114 32 -184
77 -31 20 -59 36 -61 36 -3 0 -24 -15 -48 -33 -83 -63 -140 -81 -257 -82 -95
0 -110 3 -162 28 -137 67 -200 217 -152 363 13 38 36 68 105 136 l88 87 -25
61 c-13 33 -29 93 -36 133 -9 61 -8 81 6 130 20 68 72 132 131 158 54 25 147
24 202 0z m4728 -20 c124 -61 215 -187 251 -347 25 -112 16 -312 -19 -411 -70
-199 -207 -310 -396 -321 -143 -8 -244 31 -339 132 -99 104 -144 238 -144 431
-1 136 15 212 65 314 55 112 163 203 274 231 21 5 84 8 140 6 91 -2 109 -6
168 -35z m4296 23 c159 -47 274 -185 313 -376 47 -229 -10 -476 -140 -606
-142 -142 -375 -163 -544 -50 -146 97 -229 302 -216 533 15 261 123 428 321
497 65 22 194 23 266 2z m-14469 -362 c114 -196 230 -401 258 -454 28 -54 53
-98 54 -98 1 0 0 205 -2 455 l-5 455 62 0 61 0 -1 -540 0 -540 -67 0 -67 1
-195 336 c-107 185 -224 392 -260 459 l-66 123 4 -460 4 -459 -60 0 -61 0 0
540 -1 540 68 0 67 0 207 -358z m2428 308 l0 -50 -250 0 -250 0 0 -180 0 -180
210 0 210 0 0 -50 0 -50 -210 0 -210 0 0 -210 0 -210 255 0 255 0 0 -50 0 -50
-315 0 -315 0 0 540 0 540 310 0 310 0 0 -50z m783 35 c111 -29 173 -74 211
-155 31 -67 30 -215 -2 -285 -62 -135 -174 -185 -419 -185 l-133 0 0 -220 0
-220 -60 0 -60 0 0 540 0 540 203 0 c148 0 218 -4 260 -15z m1177 -35 l0 -50
-165 0 -165 0 -2 -457 c0 -252 -1 -473 -1 -490 l0 -33 -64 0 -63 0 0 490 0
490 -165 0 -165 0 0 50 0 50 395 0 395 0 0 -50z m2618 36 c154 -41 219 -135
210 -305 -7 -145 -68 -222 -213 -275 l-32 -11 107 -181 c59 -99 121 -206 139
-237 l32 -57 -68 0 -69 0 -135 235 -134 235 -102 0 -103 0 0 -235 0 -235 -60
0 -60 0 0 540 0 540 218 0 c154 0 232 -4 270 -14z m1132 -36 l0 -50 -250 0
-250 0 0 -180 0 -180 210 0 210 0 0 -50 0 -50 -210 0 -210 0 0 -210 0 -210
255 0 255 0 0 -50 0 -50 -315 0 -315 0 0 540 0 540 310 0 310 0 0 -50z m635
-277 c105 -179 220 -383 258 -452 37 -69 71 -129 75 -133 4 -4 4 37 1 90 -4
53 -7 260 -8 460 l-1 362 60 0 60 0 0 -540 0 -540 -67 0 -68 1 -195 336 c-107
185 -224 391 -260 459 l-65 122 3 -459 4 -459 -56 0 -56 0 0 540 0 540 63 0
62 0 190 -327z m1945 323 c0 -3 40 -136 89 -298 49 -161 112 -371 140 -467 28
-95 53 -176 56 -179 3 -4 8 3 11 13 3 11 67 225 142 475 l137 455 63 3 c34 2
62 1 62 -2 0 -2 -76 -243 -170 -536 -93 -292 -170 -533 -170 -536 0 -2 -33 -4
-73 -4 l-72 0 -170 526 c-94 289 -171 532 -173 540 -3 11 11 14 62 14 36 0 66
-2 66 -4z m1285 -43 c9 -27 88 -257 175 -513 87 -256 163 -478 169 -493 l11
-28 -67 3 -67 3 -53 168 -54 167 -202 0 -203 0 -53 -170 -54 -170 -63 0 -63 0
49 143 c86 256 308 902 315 920 6 14 20 17 75 17 l68 0 17 -47z m1175 -3 l0
-50 -165 0 -165 0 0 -490 0 -490 -60 0 -60 0 0 490 0 490 -165 0 -165 0 0 50
0 50 390 0 390 0 0 -50z m399 -490 l0 -540 -65 0 -64 0 0 540 0 540 65 0 65 0
-1 -540z m1864 188 c113 -194 231 -401 263 -460 31 -60 59 -106 61 -105 1 2
-1 80 -7 173 -5 93 -10 298 -10 457 l0 287 60 0 60 0 0 -540 0 -540 -64 0 -64
0 -207 356 c-114 196 -232 403 -262 461 -30 57 -57 102 -59 100 -3 -2 0 -71 6
-153 5 -82 10 -287 10 -456 l0 -308 -60 0 -60 0 0 540 0 540 64 0 64 0 205
-352z"/>
<path d="M10590 6474 l0 -1227 208 6 c373 10 577 78 764 256 165 156 260 361
310 666 8 51 12 168 12 325 -1 204 -4 264 -22 360 -67 368 -214 585 -487 719
-174 86 -352 120 -627 121 l-158 0 0 -1226z"/>
<path d="M14475 7718 c-2 -7 -20 -83 -40 -168 -64 -271 -191 -775 -274 -1083
-45 -165 -81 -303 -81 -308 0 -5 176 -9 415 -9 291 0 415 3 415 11 0 6 -54
214 -120 462 -65 249 -157 598 -202 776 -76 296 -99 360 -113 319z"/>
<path d="M4069 3729 c-129 -19 -222 -117 -264 -276 -19 -70 -21 -246 -4 -323
28 -131 105 -239 201 -280 42 -18 65 -21 127 -18 91 4 139 25 198 86 157 160
164 544 13 715 -67 76 -166 111 -271 96z"/>
<path d="M10498 3734 c-40 -21 -68 -82 -68 -146 1 -56 38 -179 55 -185 19 -6
144 106 165 147 35 68 20 163 -29 190 -28 14 -91 12 -123 -6z"/>
<path d="M10378 3190 c-60 -62 -78 -102 -78 -172 0 -67 30 -121 88 -163 40
-27 51 -30 125 -30 84 0 135 17 197 64 l24 19 -81 81 c-44 44 -109 117 -143
163 -34 46 -67 85 -72 87 -5 2 -32 -20 -60 -49z"/>
<path d="M15153 3729 c-122 -15 -212 -108 -259 -264 -25 -84 -25 -278 0 -360
40 -133 89 -200 178 -244 120 -60 255 -36 345 61 81 89 115 194 116 358 2 305
-145 478 -380 449z"/>
<path d="M19515 3729 c-172 -22 -285 -198 -285 -444 0 -222 91 -394 232 -441
73 -24 181 -16 241 19 83 49 144 141 172 259 19 81 19 245 0 327 -46 195 -184
303 -360 280z"/>
<path d="M8090 3500 l0 -220 118 0 c248 0 336 59 336 225 0 85 -22 137 -73
170 -52 34 -109 44 -253 45 l-128 0 0 -220z"/>
<path d="M11860 3515 l0 -207 153 4 c136 3 157 6 200 27 30 15 58 38 75 64 24
36 27 50 27 121 0 95 -19 132 -88 169 -37 19 -60 22 -204 25 l-163 4 0 -207z"/>
<path d="M17105 3624 c-15 -54 -51 -174 -81 -267 -30 -94 -54 -172 -54 -174 0
-2 76 -3 170 -3 l169 0 -15 43 c-8 23 -46 143 -85 266 -38 123 -71 226 -73
228 -2 2 -16 -40 -31 -93z"/>
</g>
</svg>
